# xmcd CD database file
#
# Track frame offsets:
#	150
#	17725
#	33932
#	57225
#	99325
#	116765
#	136377
#	151875
#	172050
#
# Disc length: 2752 seconds
#
# Revision: 4
# Processed by: cddbd v1.5.2PL0 Copyright (c) Steve Scherf et al.
# Submitted via: CDex 1.70beta3
#
DISCID=6f0abe09
DTITLE=Cheap Trick - Dream Police
DYEAR=1979
DGENRE=Rock
TTITLE0=Dream Police
TTITLE1=Way Of The World
TTITLE2=The House Is Rockin' (With Domestic Problems)
TTITLE3=Gonna Raise Hell
TTITLE4=I'll Be With You Tonight
TTITLE5=Voices
TTITLE6=Writing On The Wall
TTITLE7=I Know What I Want
TTITLE8=Need Your Love
EXTD=YEAR: 1979
EXTT0=
EXTT1=
EXTT2=
EXTT3=
EXTT4=
EXTT5=
EXTT6=
EXTT7=
EXTT8=
PLAYORDER=
